<?xml version="1.0" standalone="no"?>
<!DOCTYPE svg PUBLIC "-//W3C//DTD SVG 20010904//EN"
 "http://www.w3.org/TR/2001/REC-SVG-20010904/DTD/svg10.dtd">
<svg version="1.0" xmlns="http://www.w3.org/2000/svg"
 width="500.000000pt" height="500.000000pt" viewBox="0 0 500.000000 500.000000"
 preserveAspectRatio="xMidYMid meet">
<metadata>
Created by potrace 1.12, written by Peter Selinger 2001-2015
</metadata>
<g transform="translate(0.000000,500.000000) scale(0.100000,-0.100000)"
fill="#000000" stroke="none">
<path d="M0 2500 l0 -2500 2500 0 2500 0 0 2500 0 2500 -2500 0 -2500 0 0
-2500z m3095 947 c-17 -52 -35 -105 -38 -118 l-6 -23 -29 27 -29 28 -98 -88
c-53 -48 -120 -108 -147 -133 l-49 -45 -2 -95 c-2 -84 -5 -101 -31 -148 -73
-132 -255 -180 -408 -108 -105 50 -183 169 -182 279 2 129 118 269 250 298 77
17 174 -1 248 -47 31 -20 56 -39 56 -42 1 -4 10 -18 21 -31 l20 -24 25 24 c14
13 71 72 126 132 85 91 98 109 88 122 -8 9 -9 19 -4 24 7 6 154 55 199 66 22
5 21 -9 -10 -98z m-539 60 c85 -25 192 -89 221 -133 16 -25 15 -26 -28 -70
l-43 -44 -46 44 c-148 147 -403 129 -576 -40 -69 -67 -89 -129 -81 -258 6
-104 21 -147 80 -224 83 -105 209 -160 346 -148 103 8 181 47 254 126 71 77
92 134 92 258 l1 92 49 50 c27 27 52 47 56 42 29 -33 38 -223 14 -312 -20 -74
-66 -166 -110 -218 l-37 -42 37 -52 37 -51 -33 -28 c-19 -16 -39 -29 -45 -29
-6 0 -25 20 -43 45 -18 25 -36 45 -40 45 -5 0 -35 -12 -67 -27 -48 -22 -77
-28 -154 -31 -85 -3 -105 -1 -191 27 -180 58 -307 179 -360 343 -39 123 -12
314 62 429 116 182 380 271 605 206z m414 -1141 c28 -38 50 -75 50 -82 0 -14
-78 -84 -93 -84 -10 0 -26 18 -109 129 -32 42 -58 79 -58 83 0 4 24 25 53 47
l52 41 28 -33 c15 -17 50 -63 77 -101z m-155 -771 c29 0 30 -2 31 -45 l2 -45
-7 40 c-5 34 -10 40 -31 40 -21 0 -26 -6 -31 -40 -5 -31 -6 -24 -6 30 -1 39 2
59 6 45 5 -20 12 -25 36 -25z m282 -52 c-2 -21 -4 -6 -4 32 0 39 2 55 4 38 2
-18 2 -50 0 -70z m-558 49 c-5 -2 -9 -19 -9 -37 0 -23 5 -35 18 -39 13 -4 13
-4 -3 -3 -15 2 -21 11 -23 40 -2 20 -8 37 -14 37 -7 0 -6 5 2 15 9 11 15 12
25 2 7 -7 9 -13 4 -15z m111 -11 c15 -29 13 -31 -31 -31 -37 0 -40 -2 -28 -16
7 -9 22 -14 36 -11 12 2 20 0 17 -4 -8 -13 -48 -11 -62 3 -7 7 -12 21 -12 33
0 44 60 63 80 26z m93 11 c3 -4 -9 -7 -26 -7 -29 0 -32 -3 -32 -30 0 -28 2
-30 35 -29 32 2 33 1 12 -9 -43 -20 -82 32 -52 69 13 15 55 19 63 6z m213 -42
l2 -45 -7 40 c-5 34 -10 40 -31 40 -21 0 -26 -6 -31 -40 l-6 -40 -2 46 -1 46
38 -1 c37 -1 37 -1 38 -46z m112 14 c4 -38 -18 -59 -52 -50 -30 7 -41 37 -26
66 9 16 19 20 43 18 28 -3 32 -7 35 -34z m142 16 c15 -28 3 -59 -25 -66 -40
-10 -69 24 -54 64 11 30 63 31 79 2z m110 -26 c0 -64 -7 -74 -49 -73 l-36 2
35 6 c23 4 36 12 38 24 3 16 1 17 -20 7 l-23 -11 24 19 c31 25 25 56 -12 60
-33 4 -46 -21 -28 -50 10 -16 10 -19 -1 -16 -18 6 -23 59 -6 69 7 5 28 8 46 7
31 -2 32 -4 32 -44z m37 -21 c-2 -16 -4 -5 -4 22 0 28 2 40 4 28 2 -13 2 -35
0 -50z m103 48 c15 -29 13 -31 -31 -31 -37 0 -40 -2 -28 -16 7 -9 22 -14 36
-11 12 2 20 0 17 -4 -8 -13 -48 -11 -62 3 -7 7 -12 21 -12 33 0 44 60 63 80
26z m58 12 c-37 -6 -35 -21 2 -34 33 -12 36 -19 18 -37 -14 -14 -58 -16 -58
-3 0 4 11 6 24 4 37 -7 42 16 7 28 -47 16 -41 50 8 48 l26 -2 -27 -4z"/>
<path d="M2587 1583 c-15 -15 -5 -23 28 -23 26 0 33 3 29 15 -6 15 -45 21 -57
8z"/>
<path d="M3000 1575 c-18 -22 -1 -50 31 -50 20 0 24 5 24 30 0 23 -5 31 -21
33 -11 2 -27 -4 -34 -13z"/>
<path d="M3144 1576 c-10 -26 1 -51 23 -54 28 -4 50 32 32 54 -15 18 -48 18
-55 0z"/>
<path d="M3397 1583 c-15 -15 -5 -23 28 -23 26 0 33 3 29 15 -6 15 -45 21 -57
8z"/>
</g>
</svg>
