<svg version="1.1" id="Layer_1" xmlns="http://www.w3.org/2000/svg" xmlns:xlink="http://www.w3.org/1999/xlink" x="0px" y="0px"
	 width="100%" viewBox="0 0 500 500" enable-background="new 0 0 500 500" xml:space="preserve">
<path fill="#24262B" opacity="1.000000" stroke="none" 
	d="
M239.000000,501.000000 
	C160.666687,501.000000 82.833328,500.971222 5.000210,501.096161 
	C1.575926,501.101654 0.903036,500.423828 0.905301,497.000000 
	C1.013779,333.000092 1.013772,169.000122 0.905334,5.000237 
	C0.903070,1.576917 1.575822,0.903022 4.999886,0.905287 
	C168.999771,1.013774 332.999725,1.013761 496.999634,0.905352 
	C500.422668,0.903090 501.096985,1.575446 501.094727,4.999766 
	C500.986206,168.999649 500.986237,332.999603 501.094604,496.999512 
	C501.096893,500.422272 500.425446,501.100830 497.000305,501.095947 
	C411.166992,500.973816 325.333466,501.000000 239.000000,501.000000 
z"/>
<path fill="#FBDB5B" opacity="1.000000" stroke="none" 
	d="
M273.980408,159.015991 
	C281.247101,165.450638 281.225372,165.428986 274.840271,171.834717 
	C273.787659,172.890701 273.020081,174.230804 271.924377,175.703629 
	C260.659943,161.233994 246.383438,158.153519 230.306915,162.054047 
	C221.438202,164.205795 213.849426,169.362411 207.702820,176.013504 
	C200.017181,184.329926 199.756058,194.983902 201.395416,205.237503 
	C204.154266,222.492889 216.653290,234.974731 234.702652,237.555801 
	C250.105179,239.758377 262.252502,235.525208 273.349731,220.179871 
	C278.647919,212.853516 279.878601,204.166443 278.599030,195.443954 
	C278.059265,191.764542 278.613098,189.598892 281.388031,187.349182 
	C283.947266,185.274338 286.065186,182.655121 288.807587,179.833099 
	C293.086731,190.716156 293.179169,201.299484 290.584442,211.900314 
	C288.387909,220.874237 284.190460,228.984070 277.799133,235.747559 
	C276.183258,237.457520 275.946320,238.604065 277.451385,240.305801 
	C278.327148,241.296005 279.013672,242.452774 279.794159,243.528229 
	C283.594238,248.764679 283.445038,248.565369 278.354431,252.416626 
	C275.590454,254.507675 274.363342,253.914825 272.468628,251.370911 
	C267.668182,244.925583 267.529236,245.029083 260.276642,247.949402 
	C231.276901,259.626434 192.473343,238.897354 188.602921,208.079391 
	C185.088577,180.097000 196.847519,156.542130 230.007126,149.149384 
	C245.804993,145.627319 260.635956,148.777939 273.980408,159.015991 
z"/>
<path fill="#FDFDFD" opacity="1.000000" stroke="none" 
	d="
M270.104614,192.985596 
	C273.350830,208.221008 267.521118,221.855850 255.894821,227.004791 
	C241.225571,233.501373 224.070953,229.244675 214.852600,216.518646 
	C214.179214,214.071564 215.510803,212.714920 216.778229,211.413483 
	C221.529083,206.535156 225.801132,201.234009 230.347595,196.176331 
	C233.539001,192.626099 235.397812,192.353271 239.384689,195.050247 
	C242.682007,197.280777 246.014038,199.488815 249.104462,201.996353 
	C252.203506,204.510895 254.827179,204.727676 257.687805,201.557144 
	C260.014099,198.978867 263.042908,197.112701 265.543915,194.672653 
	C266.721588,193.523682 267.993378,192.367447 270.104614,192.985596 
z"/>
<path fill="#FDFDFD" opacity="1.000000" stroke="none" 
	d="
M211.518005,209.969757 
	C205.377686,199.848297 209.528809,186.733246 217.043030,178.766815 
	C228.779266,166.324265 246.548615,164.699600 260.359039,174.828766 
	C263.085815,176.828720 265.304321,179.256989 266.990784,182.577332 
	C267.479187,183.446747 267.921906,184.002502 267.869354,184.695404 
	C267.632263,187.822525 258.496643,198.840149 255.432495,199.705948 
	C253.278564,200.314560 251.523819,199.306763 249.868759,198.157410 
	C246.317734,195.691376 242.764725,193.200287 239.531754,190.338272 
	C236.448730,187.609009 234.063919,187.638107 231.068649,190.700317 
	C225.951431,195.931931 221.010773,201.311340 216.121490,206.748459 
	C214.916092,208.088928 213.763290,209.583115 211.518005,209.969757 
z"/>
<path fill="#A6A6A6" opacity="1.000000" stroke="none" 
	d="
M211.157013,210.218872 
	C217.819443,202.026535 224.964890,194.655136 232.188278,187.344864 
	C234.303116,185.204605 235.757034,185.164246 237.993790,186.988205 
	C242.486343,190.651642 247.216034,194.022995 251.748428,197.639496 
	C253.667191,199.170517 255.046127,199.374390 256.635590,197.187439 
	C259.979095,192.587097 265.084198,189.341049 267.063416,183.287476 
	C269.223633,183.376846 269.939728,181.482986 271.008789,180.381226 
	C277.731018,173.453369 284.352936,166.428345 291.046692,159.472656 
	C292.366028,158.101669 293.818359,157.007523 291.665588,155.073532 
	C290.027161,153.601608 291.385712,152.648300 292.720490,152.280624 
	C299.528625,150.405319 305.960754,147.216766 313.879272,146.197922 
	C311.413574,153.856644 309.116486,161.100464 306.730652,168.314926 
	C306.226990,169.837997 305.159393,169.871597 304.178467,168.667908 
	C303.123138,167.372910 302.163239,166.000168 301.102905,164.582779 
	C290.037659,173.866516 280.025757,182.860214 270.520660,192.945694 
	C265.270660,195.934647 261.557465,200.224670 257.679535,204.198364 
	C254.977066,206.967545 253.007690,206.992096 250.146210,204.733521 
	C246.239563,201.650009 241.963821,199.032639 238.073318,195.930710 
	C235.575226,193.938965 234.045181,194.165466 231.978455,196.594696 
	C226.492355,203.043030 220.734772,209.260391 214.917725,215.880432 
	C212.797318,214.796921 212.145096,212.567612 211.157013,210.218872 
z"/>
<path fill="#6F6F70" opacity="1.000000" stroke="none" 
	d="
M142.803467,321.160828 
	C137.309204,313.658539 136.921021,306.924225 141.406570,301.146454 
	C146.327393,294.808044 153.944382,292.659698 161.511627,295.475861 
	C168.249374,297.983337 172.479034,304.489777 171.895813,311.449768 
	C171.426727,317.047363 169.416245,319.838715 161.521454,325.805145 
	C163.596710,328.681244 166.215912,328.502930 169.011246,327.167450 
	C170.429794,326.489685 171.783127,325.722900 172.699539,327.790436 
	C173.509872,329.618652 172.420609,330.509460 171.037064,331.375610 
	C167.048538,333.872711 161.442993,333.590668 158.164505,329.991119 
	C155.913254,327.519409 153.708725,325.974854 150.293076,325.590454 
	C147.499924,325.276123 145.062119,323.534393 142.803467,321.160828 
z"/>
<path fill="#717171" opacity="1.000000" stroke="none" 
	d="
M242.738754,294.532410 
	C245.103302,299.460754 243.721451,304.464386 244.007431,309.361267 
	C244.249557,313.507172 244.124664,317.680298 244.019379,321.837738 
	C243.981476,323.334808 244.771667,325.416290 242.310410,325.884460 
	C240.427048,326.242767 238.798599,325.943085 237.504623,324.154480 
	C233.410736,318.495728 229.203400,312.918152 224.976425,307.357513 
	C224.329788,306.506836 224.069138,305.153778 222.081070,305.011078 
	C222.081070,310.472748 222.154114,315.884033 222.041840,321.291443 
	C222.002014,323.209259 223.030518,326.031128 219.371658,325.943298 
	C216.074615,325.864197 217.007629,323.287476 216.986588,321.514343 
	C216.897736,314.027222 216.895081,306.537750 216.990234,299.050751 
	C217.011169,297.404327 216.054184,295.117493 218.640625,294.431030 
	C221.081604,293.783234 222.626648,295.119598 224.031769,297.051056 
	C228.518341,303.218231 233.149414,309.280334 238.984787,315.246857 
	C238.984787,309.620056 239.018173,303.992981 238.968933,298.366638 
	C238.948196,295.996399 239.026123,293.858734 242.738754,294.532410 
z"/>
<path fill="#6F6F70" opacity="1.000000" stroke="none" 
	d="
M208.716064,303.630859 
	C211.286987,311.413757 209.824265,317.939697 204.800476,322.230835 
	C199.849854,326.459412 191.400421,327.522522 185.544449,324.480133 
	C179.510452,321.345276 176.571487,316.391296 176.897064,309.467316 
	C177.215546,302.694214 180.752396,298.317047 186.721130,295.720642 
	C193.335968,292.843231 199.398392,294.182831 204.891953,298.588501 
	C206.457504,299.844055 207.699875,301.421631 208.716064,303.630859 
z"/>
<path fill="#A4A4A4" opacity="1.000000" stroke="none" 
	d="
M296.502594,279.674866 
	C294.353851,281.491119 292.735016,281.462708 291.188690,279.364197 
	C287.052216,273.750580 282.905182,268.142181 278.627838,262.636200 
	C277.023193,260.570648 276.926636,259.202606 279.021027,257.283600 
	C286.630402,250.311630 287.149811,250.228149 293.626648,258.198822 
	C296.138000,261.289398 298.221497,264.735077 300.807892,267.755249 
	C303.854767,271.313202 303.526520,274.132660 299.756805,276.779358 
	C298.675842,277.538300 297.768127,278.544006 296.502594,279.674866 
z"/>
<path fill="#6F6F70" opacity="1.000000" stroke="none" 
	d="
M254.866699,309.103119 
	C250.173462,302.353149 252.107620,296.987823 259.534546,294.779022 
	C263.791077,293.513123 267.749603,294.482452 271.682495,295.969482 
	C273.424225,296.627991 274.470551,297.724487 273.748108,299.801941 
	C272.957886,302.074463 271.493652,301.776245 269.796936,300.993774 
	C267.480347,299.925476 265.016571,299.608307 262.491699,299.753296 
	C260.774780,299.851898 259.045166,300.075775 258.783722,302.259949 
	C258.556580,304.157776 259.521240,305.483521 261.228851,306.168427 
	C264.001740,307.280640 266.859955,308.186310 269.605682,309.358337 
	C273.093231,310.847046 275.220367,313.264771 275.056213,317.406891 
	C274.902466,321.286102 272.757050,323.734741 269.519745,324.969849 
	C263.744385,327.173157 258.093231,326.384888 252.843536,323.068939 
	C250.961960,321.880432 250.571289,320.371246 251.833939,318.438629 
	C253.272934,316.236145 254.370590,318.138702 255.515076,318.723694 
	C257.903717,319.944611 260.319885,320.998444 263.066376,321.029541 
	C265.481842,321.056915 268.060974,320.944824 268.763336,318.154144 
	C269.512115,315.179108 267.008514,314.108521 264.820953,313.279510 
	C261.565125,312.045624 258.114685,311.307800 254.866699,309.103119 
z"/>
<path fill="#717171" opacity="1.000000" stroke="none" 
	d="
M283.298096,294.525452 
	C286.422211,293.967407 287.196991,295.367126 287.150909,297.844666 
	C287.067322,302.339996 287.017609,306.842224 287.170929,311.334167 
	C287.414093,318.457001 290.182587,321.362396 296.247742,321.166504 
	C301.608429,320.993378 303.951965,317.992126 303.992035,311.186584 
	C304.018524,306.689728 304.019043,302.192505 303.993622,297.695648 
	C303.983429,295.888550 304.133423,294.306061 306.535980,294.319122 
	C308.871521,294.331818 309.163208,295.829712 309.150635,297.678040 
	C309.113251,303.174042 309.222687,308.673004 309.080322,314.165802 
	C308.913818,320.590210 305.067169,324.965515 299.009918,325.929810 
	C291.042969,327.198090 284.208832,324.252441 282.831635,317.741089 
	C281.232300,310.179565 281.209351,302.347778 283.298096,294.525452 
z"/>
<path fill="#6F6F70" opacity="1.000000" stroke="none" 
	d="
M364.733582,296.085815 
	C364.778473,300.576965 361.651184,299.730682 359.387665,299.618652 
	C355.903778,299.446198 354.684601,300.778137 354.804230,304.238647 
	C355.010712,310.209961 354.836304,316.193817 354.868073,322.172150 
	C354.879669,324.354340 354.718781,326.142059 351.748718,326.019928 
	C348.954468,325.904999 349.135406,324.034332 349.130157,322.194397 
	C349.113129,316.215942 348.972168,310.232300 349.176239,304.260803 
	C349.293518,300.828827 348.135590,299.313477 344.622925,299.650360 
	C343.328613,299.774475 341.956055,299.623505 340.686432,299.318329 
	C339.297821,298.984467 339.189850,297.698883 339.221680,296.497070 
	C339.250763,295.399200 339.708038,294.404205 340.889160,294.406952 
	C348.647949,294.425018 356.427399,293.567078 364.154846,294.889099 
	C364.369690,294.925842 364.507904,295.410767 364.733582,296.085815 
z"/>
<path fill="#717171" opacity="1.000000" stroke="none" 
	d="
M323.737244,299.358734 
	C323.738922,305.453552 323.866241,311.094757 323.692474,316.726715 
	C323.595154,319.880737 324.587311,321.381348 327.923431,321.100281 
	C330.062653,320.920013 332.231018,321.092682 334.386322,321.093719 
	C335.919708,321.094482 336.891876,321.621033 336.967163,323.363190 
	C337.052063,325.328613 336.087708,326.009369 334.272461,325.998352 
	C329.796051,325.971222 325.318756,325.947449 320.842896,326.005096 
	C317.732208,326.045135 318.049774,323.864685 318.046295,321.884644 
	C318.032837,314.257629 317.991791,306.630127 318.072388,299.003998 
	C318.092865,297.065430 317.130219,294.323608 320.728394,294.323853 
	C324.039948,294.324066 323.677979,296.754700 323.737244,299.358734 
z"/>
<path fill="#C0A94B" opacity="1.000000" stroke="none" 
	d="
M354.174805,340.904785 
	C355.027588,342.604004 353.781403,342.100647 353.189087,342.045929 
	C349.462372,341.701691 350.142212,343.496155 351.699341,345.491302 
	C347.454163,345.751465 343.513245,345.992950 339.718781,346.225464 
	C338.769409,344.844727 340.448212,344.358063 340.190094,343.391235 
	C342.557831,345.102661 342.029419,338.889038 345.290283,341.714203 
	C347.955353,344.023102 350.716370,339.238007 354.174805,340.904785 
z"/>
<path fill="#C0A94B" opacity="1.000000" stroke="none" 
	d="
M258.504150,343.594147 
	C259.408325,340.733185 261.865723,339.529724 263.541901,340.922455 
	C265.360596,342.433594 269.890045,340.827881 269.116302,345.375061 
	C268.816803,347.135132 270.775421,347.755280 270.832245,349.981934 
	C267.625305,345.235138 263.060211,345.967010 258.593292,345.944977 
	C257.459564,345.939392 258.595428,344.612091 258.504150,343.594147 
z"/>
<path fill="#C0A94B" opacity="1.000000" stroke="none" 
	d="
M251.389526,340.859955 
	C252.594406,337.846283 253.696274,339.523010 255.094223,340.334961 
	C257.554535,341.764099 255.028824,341.585693 254.732559,342.291809 
	C253.567871,345.067383 252.958237,347.944336 257.039307,349.604828 
	C253.527817,350.770172 252.379700,349.222595 252.187027,346.419678 
	C252.064041,344.630676 252.391632,342.770905 251.389526,340.859955 
z"/>
<path fill="#26282D" opacity="1.000000" stroke="none" 
	d="
M306.428741,348.663696 
	C305.361633,348.991333 304.561920,348.996216 303.362366,349.000702 
	C299.847992,348.435028 299.641235,346.117859 300.274261,343.826172 
	C300.937805,341.423950 302.874146,340.734497 305.644348,341.758881 
	C306.029236,342.022797 305.991821,342.008209 305.982666,341.990295 
	C306.204987,342.207733 306.437775,342.441742 306.848511,342.847870 
	C307.025116,343.021332 306.992371,343.007874 306.987427,342.990845 
	C308.629517,344.855835 307.713989,346.601135 306.428741,348.663696 
z"/>
<path fill="#C0A94B" opacity="1.000000" stroke="none" 
	d="
M306.128052,341.674896 
	C304.252258,342.317261 301.980713,341.346375 301.048370,343.838928 
	C300.357697,345.685333 300.745178,347.300079 302.681854,348.753479 
	C299.933258,350.172028 299.367218,347.868713 299.014404,345.903900 
	C298.591339,343.547943 299.732635,341.734467 302.021362,340.853302 
	C303.465240,340.297333 304.922791,340.305298 306.128052,341.674896 
z"/>
<path fill="#C0A94B" opacity="1.000000" stroke="none" 
	d="
M311.829712,344.829407 
	C311.697479,346.769775 312.204865,348.426270 310.513763,350.405182 
	C309.665527,345.536835 309.894531,341.459229 310.284515,336.732880 
	C312.841339,339.336487 311.399963,342.042511 311.829712,344.829407 
z"/>
<path fill="#FBDB5B" opacity="1.000000" stroke="none" 
	d="
M284.722412,342.515503 
	C277.095398,340.174805 279.943787,346.746368 278.073425,350.588989 
	C278.073425,345.556885 278.073425,341.658478 278.073425,337.760071 
	C278.139709,342.990479 282.715424,339.812225 284.901825,341.662170 
	C285.024323,342.195953 285.025177,342.411713 284.722412,342.515503 
z"/>
<path fill="#FBDB5B" opacity="1.000000" stroke="none" 
	d="
M295.722412,342.515503 
	C288.167358,340.244995 290.867645,346.606720 289.493347,349.790680 
	C287.770142,341.342407 288.666321,340.204132 295.898468,341.660034 
	C296.024323,342.195953 296.025177,342.411713 295.722412,342.515503 
z"/>
<path fill="#C0A94B" opacity="1.000000" stroke="none" 
	d="
M331.693665,349.160736 
	C333.853363,350.807953 332.618500,352.061859 331.498474,352.799500 
	C329.262238,354.272339 326.899933,354.044678 324.415314,352.278717 
	C326.484680,350.767487 329.433594,353.626587 330.914185,350.384247 
	C331.056549,349.691101 331.133057,349.368317 331.693665,349.160736 
z"/>
<path fill="#FBDB5B" opacity="1.000000" stroke="none" 
	d="
M284.872192,342.085876 
	C287.413513,344.275421 285.710510,346.942261 285.308105,349.518494 
	C285.113220,347.391602 284.918365,345.264740 284.571136,342.770691 
	C284.418793,342.403534 284.720856,342.191498 284.872192,342.085876 
z"/>
<path fill="#FBDB5B" opacity="1.000000" stroke="none" 
	d="
M295.872192,342.085876 
	C298.303650,344.285431 296.975098,346.918274 296.308105,349.518494 
	C296.113220,347.391632 295.918335,345.264740 295.571106,342.770691 
	C295.418793,342.403534 295.720856,342.191498 295.872192,342.085876 
z"/>
<path fill="#C0A94B" opacity="1.000000" stroke="none" 
	d="
M322.225586,344.661102 
	C320.418335,343.155426 318.882935,341.254425 314.917145,342.439941 
	C317.760040,339.769714 319.574799,340.524963 321.710938,341.853088 
	C322.516907,342.713409 322.712891,343.477692 322.225586,344.661102 
z"/>
<path fill="#C0A94B" opacity="1.000000" stroke="none" 
	d="
M306.397034,348.981201 
	C306.563354,347.259003 307.227356,345.565948 306.916412,343.355072 
	C309.443695,345.188049 309.402222,345.899780 306.397034,348.981201 
z"/>
<path fill="#C0A94B" opacity="1.000000" stroke="none" 
	d="
M322.984955,343.679504 
	C323.881866,343.033173 324.433472,342.377472 325.253204,341.539795 
	C325.750000,341.373535 325.978699,341.389282 326.397400,341.693329 
	C327.006622,343.606873 326.620209,345.164215 326.044189,347.030090 
	C325.754395,347.519318 325.608643,347.696136 325.152283,348.020142 
	C324.187042,347.264282 323.532440,346.361206 322.814087,345.231201 
	C322.557220,344.572479 322.520416,344.127777 322.984955,343.679504 
z"/>
<path fill="#C0A94B" opacity="1.000000" stroke="none" 
	d="
M332.239349,348.189331 
	C332.370239,348.714966 332.410736,348.908447 332.225342,349.210297 
	C331.981873,349.405121 331.786072,349.534271 331.285156,349.838623 
	C329.373230,348.097992 326.641541,351.297668 325.008972,348.452515 
	C324.991394,348.014954 325.141113,347.862549 325.515686,347.481812 
	C327.607727,346.072296 329.595459,345.900848 331.973145,346.795715 
	C332.286316,347.302765 332.306763,347.558624 332.239349,348.189331 
z"/>
<path fill="#26282D" opacity="1.000000" stroke="none" 
	d="
M315.128571,347.759979 
	C316.764587,348.184418 318.211487,347.445984 319.104431,348.725464 
	C319.290955,348.992798 318.843872,350.111389 318.431793,350.313293 
	C316.997284,351.016205 316.033478,350.100342 315.135437,348.718140 
	C314.934662,348.118011 314.821747,347.808319 315.128571,347.759979 
z"/>
<path fill="#C0A94B" opacity="1.000000" stroke="none" 
	d="
M315.143799,348.290405 
	C312.943298,345.760376 312.943298,345.760376 314.693237,342.156677 
	C314.924530,344.266998 315.084717,345.728516 315.396606,347.605652 
	C315.548279,348.021301 315.240021,348.153168 315.143799,348.290405 
z"/>
<path fill="#C0A94B" opacity="1.000000" stroke="none" 
	d="
M325.695801,341.594421 
	C327.447754,340.094299 329.381683,340.424011 331.669373,341.351562 
	C332.023163,341.638641 332.025909,341.904724 331.752075,342.461853 
	C329.945251,343.649933 328.398987,343.641663 326.540497,342.560699 
	C326.118408,342.134491 325.994324,341.982758 325.695801,341.594421 
z"/>
<path fill="#FBDB5B" opacity="1.000000" stroke="none" 
	d="
M330.924438,343.057068 
	C331.259277,342.525146 331.450317,342.321838 331.830872,341.745575 
	C334.265747,343.369476 332.683563,345.869751 332.530426,348.348206 
	C332.055115,348.254852 331.958710,347.945526 331.770813,347.158813 
	C330.693756,345.769989 330.531738,344.633881 330.924438,343.057068 
z"/>
<path fill="#C0A94B" opacity="1.000000" stroke="none" 
	d="
M272.599030,341.489563 
	C272.216766,341.345490 272.014374,341.160278 271.811981,340.975067 
	C272.032440,340.809662 272.282135,340.477570 272.467865,340.510162 
	C273.025024,340.607849 273.191711,340.963074 272.599030,341.489563 
z"/>
<path fill="#26282D" opacity="1.000000" stroke="none" 
	d="
M323.166199,343.368164 
	C323.156403,343.959717 323.009735,344.244568 322.820312,344.773834 
	C322.750336,345.004242 322.368164,345.000916 322.177063,344.997986 
	C322.019775,344.247864 322.053558,343.500610 322.053650,342.380127 
	C322.347382,342.353729 322.674744,342.700562 323.166199,343.368164 
z"/>
<path fill="#C0A94B" opacity="1.000000" stroke="none" 
	d="
M307.132202,342.661987 
	C306.685028,342.870758 306.344940,342.720184 305.989197,342.271027 
	C306.395416,342.082489 306.817352,342.192566 307.132202,342.661987 
z"/>
<path fill="#26282D" opacity="1.000000" stroke="none" 
	d="
M164.768967,304.606323 
	C167.599762,312.502106 164.993454,319.092316 158.668320,320.872711 
	C152.303894,322.664185 145.781738,318.951172 144.285797,312.684845 
	C143.185516,308.075867 145.407120,303.039551 149.542145,300.769012 
	C154.886215,297.834503 159.688370,298.950928 164.768967,304.606323 
z"/>
<path fill="#26282D" opacity="1.000000" stroke="none" 
	d="
M195.428406,299.359894 
	C202.306702,301.882812 205.210098,305.993774 204.384079,311.605560 
	C203.552582,317.254547 199.952759,320.773651 194.641342,321.129883 
	C188.620956,321.533661 184.270264,318.609680 182.569351,313.016541 
	C180.414215,305.929779 186.391663,299.342072 195.428406,299.359894 
z"/>
<path fill="#24262B" opacity="1.000000" stroke="none" 
	d="
M264.569061,343.467773 
	C263.190186,344.991547 261.735016,345.032166 260.358093,343.834503 
	C260.218933,343.713470 260.428925,342.837646 260.705170,342.652252 
	C262.047455,341.751526 263.373444,341.769775 264.569061,343.467773 
z"/>
<path fill="#26282D" opacity="1.000000" stroke="none" 
	d="
M330.749146,342.585083 
	C331.694977,343.733551 332.091431,344.791046 331.746185,346.341797 
	C330.122589,348.229614 328.329895,348.514740 326.034363,347.467224 
	C324.916443,345.759216 324.771545,344.295410 326.089203,342.588257 
	C327.648926,342.052612 329.054993,341.829376 330.749146,342.585083 
z"/>
</svg>